<svg width="17" height="18" viewBox="0 0 17 18" fill="none" xmlns="http://www.w3.org/2000/svg">
<path d="M4.5 4L4 6.5V8L2.5 10L3 11L4 11.5V13.5L4.5 14H6L6.5 14.5L7 15.5L9 16.5L12.5 15.5V11L14 10L14.5 5.5L12 2.5L8.5 2L4.5 4Z" fill="#222222"/>
<path d="M9.56094 17.2414C8.30937 17.2414 7.325 17.0211 6.60781 16.5805C5.89062 16.1445 5.53203 15.5352 5.53203 14.7523V14.0563L6.40391 14.8227L5.11016 14.9633C4.46797 15.0336 3.93828 14.9047 3.52109 14.5766C3.10859 14.2531 2.90234 13.7586 2.90234 13.093V12.0031C2.51797 11.9187 2.225 11.7477 2.02344 11.4898C1.82187 11.232 1.72109 10.932 1.72109 10.5898C1.72109 10.2148 1.83359 9.83047 2.05859 9.43672L2.92344 7.88984C2.91406 7.80547 2.90703 7.72109 2.90234 7.63672C2.90234 7.55234 2.90234 7.46094 2.90234 7.3625C2.90234 6.42969 3.04766 5.58125 3.33828 4.81719C3.63359 4.04844 4.05312 3.38984 4.59687 2.84141C5.14531 2.28828 5.79922 1.86406 6.55859 1.56875C7.31797 1.26875 8.15937 1.11875 9.08281 1.11875C10.0109 1.11875 10.8547 1.27109 11.6141 1.57578C12.3781 1.88047 13.0344 2.31406 13.5828 2.87656C14.1312 3.43906 14.5531 4.11172 14.8484 4.89453C15.1484 5.67734 15.2984 6.54687 15.2984 7.50312C15.2984 8.31406 15.1531 9.07344 14.8625 9.78125C14.5719 10.4844 14.1664 11.0727 13.6461 11.5461V14.7523C13.6461 15.5352 13.2805 16.1445 12.5492 16.5805C11.8227 17.0211 10.8266 17.2414 9.56094 17.2414ZM9.56094 15.9195C10.4187 15.9195 11.0914 15.7953 11.5789 15.5469C12.0711 15.2984 12.3172 14.9656 12.3172 14.5484V10.8781C12.8328 10.5734 13.2359 10.1187 13.5266 9.51406C13.8219 8.90937 13.9695 8.23906 13.9695 7.50312C13.9695 6.49062 13.7656 5.60469 13.3578 4.84531C12.95 4.08594 12.3805 3.49766 11.6492 3.08047C10.918 2.65859 10.0625 2.44766 9.08281 2.44766C8.1125 2.44766 7.26172 2.65156 6.53047 3.05937C5.80391 3.46719 5.23672 4.03906 4.82891 4.775C4.42578 5.50625 4.22422 6.36172 4.22422 7.34141C4.22422 7.47734 4.22891 7.61328 4.23828 7.74922C4.25234 7.88516 4.27109 8.01875 4.29453 8.15L3.275 9.98516C3.17656 10.1633 3.12734 10.3273 3.12734 10.4773C3.12734 10.6227 3.17656 10.7375 3.275 10.8219C3.37344 10.9062 3.51641 10.9484 3.70391 10.9484H4.02734C4.08828 10.9484 4.13516 10.9648 4.16797 10.9977C4.20547 11.0305 4.22422 11.075 4.22422 11.1312V12.9945C4.22422 13.2383 4.28516 13.4141 4.40703 13.5219C4.53359 13.625 4.71641 13.6648 4.95547 13.6414L6.54453 13.4656C6.61953 13.4562 6.68047 13.4727 6.72734 13.5148C6.77891 13.557 6.80469 13.6156 6.80469 13.6906V14.5484C6.80469 14.9656 7.04844 15.2984 7.53594 15.5469C8.02344 15.7953 8.69844 15.9195 9.56094 15.9195ZM6.85391 8.25547C6.35234 8.25547 5.94687 8.08203 5.6375 7.73516C5.32812 7.38359 5.17344 6.94766 5.17344 6.42734C5.17344 6.22578 5.20156 6.03125 5.25781 5.84375C5.31875 5.65625 5.40312 5.48281 5.51094 5.32344C5.61406 5.49687 5.75937 5.6375 5.94687 5.74531C6.13906 5.85312 6.35703 5.90703 6.60078 5.90703C6.69453 5.90703 6.77422 5.87422 6.83984 5.80859C6.91016 5.73828 6.94531 5.65859 6.94531 5.56953C6.94531 5.48047 6.9125 5.40312 6.84687 5.3375C6.78125 5.27187 6.69922 5.23906 6.60078 5.23906C6.43203 5.23906 6.29375 5.17812 6.18594 5.05625C6.07812 4.93437 6.02422 4.78203 6.02422 4.59922C6.02422 4.31797 6.14609 4.07187 6.38984 3.86094C6.63828 3.64531 6.96172 3.5375 7.36016 3.5375C7.46797 3.5375 7.56641 3.54687 7.65547 3.56562C7.62734 3.64531 7.59922 3.72969 7.57109 3.81875C7.54766 3.90781 7.53359 4.01094 7.52891 4.12812C7.52891 4.23125 7.55703 4.31562 7.61328 4.38125C7.67422 4.44687 7.75625 4.47969 7.85937 4.47969C7.95312 4.47969 8.03047 4.44922 8.09141 4.38828C8.15703 4.32734 8.18984 4.24766 8.18984 4.14922C8.18984 3.86797 8.28828 3.64062 8.48516 3.46719C8.68672 3.29375 8.93984 3.20703 9.24453 3.20703C9.41328 3.20703 9.58437 3.24922 9.75781 3.33359C9.93594 3.41328 10.093 3.52578 10.2289 3.67109C10.2664 3.66641 10.3086 3.66406 10.3555 3.66406C10.4023 3.65937 10.4797 3.65703 10.5875 3.65703C10.9484 3.65234 11.2578 3.77891 11.5156 4.03672C11.7734 4.28984 11.9023 4.59922 11.9023 4.96484C11.9023 5.26953 11.818 5.52969 11.6492 5.74531C11.4852 5.96094 11.2812 6.16016 11.0375 6.34297C10.7937 6.52109 10.5477 6.70625 10.2992 6.89844C10.0555 7.08594 9.84922 7.30391 9.68047 7.55234C9.51641 7.79609 9.43437 8.09141 9.43437 8.43828C9.43437 8.53672 9.44609 8.62812 9.46953 8.7125C9.38516 8.72656 9.30312 8.73828 9.22344 8.74766C9.14375 8.75234 9.06875 8.75469 8.99844 8.75469C8.81094 8.75469 8.63047 8.73594 8.45703 8.69844C8.28828 8.66094 8.13125 8.60234 7.98594 8.52266C8.21562 8.38672 8.39609 8.20391 8.52734 7.97422C8.66328 7.74453 8.73359 7.48437 8.73828 7.19375C8.73828 7.05312 8.72422 6.92891 8.69609 6.82109C9.38984 6.64297 9.73672 6.18594 9.73672 5.45C9.73672 5.36094 9.70156 5.28359 9.63125 5.21797C9.56562 5.15234 9.48594 5.11953 9.39219 5.11953C9.30312 5.11953 9.22578 5.15234 9.16016 5.21797C9.09922 5.28359 9.06875 5.36328 9.06875 5.45703C9.06875 5.90234 8.85547 6.16016 8.42891 6.23047C8.41484 6.20703 8.39844 6.17891 8.37969 6.14609C8.36094 6.11328 8.33984 6.0875 8.31641 6.06875C8.27422 6.03125 8.22969 6.00547 8.18281 5.99141C8.13594 5.97734 8.09141 5.97031 8.04922 5.97031C7.96016 5.97031 7.88281 6.00078 7.81719 6.06172C7.75625 6.12266 7.72578 6.19531 7.72578 6.27969C7.72578 6.38281 7.77734 6.48594 7.88047 6.58906C8.01641 6.72969 8.08437 6.9125 8.08437 7.1375C8.08437 7.46094 7.96953 7.72812 7.73984 7.93906C7.51016 8.15 7.21484 8.25547 6.85391 8.25547ZM11.7477 10.0203C11.5039 10.0203 11.2906 9.92891 11.1078 9.74609C10.9297 9.56328 10.8148 9.32422 10.7633 9.02891H10.6719C10.4703 9.02891 10.3133 8.97266 10.2008 8.86016C10.0883 8.74297 10.032 8.59531 10.032 8.41719C10.032 8.16406 10.1094 7.94375 10.2641 7.75625C10.4187 7.56875 10.6109 7.39062 10.8406 7.22187C11.075 7.05312 11.3117 6.875 11.5508 6.6875C11.7945 6.49531 12.0055 6.275 12.1836 6.02656C12.3664 5.77344 12.4766 5.46875 12.5141 5.1125C12.7391 5.24844 12.9148 5.42891 13.0414 5.65391C13.168 5.87891 13.2312 6.12969 13.2312 6.40625C13.2312 6.71094 13.1281 6.95234 12.9219 7.13047C12.7156 7.30859 12.4437 7.38594 12.1062 7.3625C12.0172 7.34844 11.9375 7.37656 11.8672 7.44687C11.8016 7.5125 11.7687 7.59219 11.7687 7.68594C11.7687 7.775 11.7992 7.85 11.8602 7.91094C11.9211 7.97187 11.9984 8.00937 12.0922 8.02344C12.4109 8.04219 12.6945 8 12.943 7.89687C12.943 7.93906 12.943 7.98125 12.943 8.02344C12.943 8.06094 12.943 8.10078 12.943 8.14297C12.943 8.69609 12.8305 9.14844 12.6055 9.5C12.3805 9.84687 12.0945 10.0203 11.7477 10.0203Z" fill="white"/>
</svg>
