<svg width="11" height="15" viewBox="0 0 11 15" fill="none" xmlns="http://www.w3.org/2000/svg">
<path d="M1.24512 14.5098C0.830078 14.5098 0.517415 14.4046 0.307129 14.1943C0.102376 13.984 0 13.6714 0 13.2563V1.24512C0 0.830078 0.105143 0.520182 0.31543 0.31543C0.525716 0.105143 0.835612 0 1.24512 0H3.2373C3.64681 0 3.95671 0.102376 4.16699 0.307129C4.37728 0.511882 4.48242 0.824544 4.48242 1.24512V13.2563C4.48242 13.6714 4.37728 13.984 4.16699 14.1943C3.95671 14.4046 3.64681 14.5098 3.2373 14.5098H1.24512ZM7.71973 14.5098C7.29915 14.5098 6.98372 14.4046 6.77344 14.1943C6.56868 13.984 6.46631 13.6714 6.46631 13.2563V1.24512C6.46631 0.830078 6.57145 0.520182 6.78174 0.31543C6.99202 0.105143 7.30469 0 7.71973 0H9.70361C10.1187 0 10.4285 0.102376 10.6333 0.307129C10.8436 0.511882 10.9487 0.824544 10.9487 1.24512V13.2563C10.9487 13.6714 10.8436 13.984 10.6333 14.1943C10.4285 14.4046 10.1187 14.5098 9.70361 14.5098H7.71973Z" fill="black"/>
</svg>
