<svg width="10" height="11" viewBox="0 0 10 11" fill="none" xmlns="http://www.w3.org/2000/svg">
<path d="M0 9.85742V0.888672C0 0.583333 0.0751953 0.360026 0.225586 0.21875C0.380534 0.0729167 0.562826 0 0.772461 0C0.954753 0 1.13932 0.0524089 1.32617 0.157227L8.85938 4.57324C9.10547 4.71452 9.27865 4.8444 9.37891 4.96289C9.47917 5.07682 9.5293 5.21354 9.5293 5.37305C9.5293 5.53255 9.47917 5.67155 9.37891 5.79004C9.27865 5.90397 9.10547 6.03385 8.85938 6.17969L1.32617 10.5957C1.13932 10.7005 0.954753 10.7529 0.772461 10.7529C0.562826 10.7529 0.380534 10.68 0.225586 10.5342C0.0751953 10.3929 0 10.1673 0 9.85742Z" fill="#0D0D0D"/>
</svg>
