<svg width="23" height="23" viewBox="0 0 23 23" fill="none" xmlns="http://www.w3.org/2000/svg">
<path d="M10.4092 22.9668C9.58203 22.9668 8.9375 22.4619 8.75488 21.667L8.28223 19.6582L7.93848 19.54L6.19824 20.6143C5.5 21.0439 4.68359 20.9473 4.09277 20.3564L2.59961 18.8633C2.00879 18.2725 1.90137 17.4561 2.3418 16.7686L3.42676 15.0283L3.30859 14.7061L1.2998 14.2334C0.515625 14.0508 0 13.3955 0 12.5791V10.4521C0 9.63574 0.504883 8.99121 1.2998 8.79785L3.28711 8.31445L3.41602 7.9707L2.33105 6.23047C1.89062 5.54297 1.9873 4.7373 2.58887 4.13574L4.08203 2.63184C4.66211 2.05176 5.47852 1.94434 6.17676 2.37402L7.91699 3.44824L8.28223 3.30859L8.75488 1.2998C8.9375 0.504883 9.58203 0 10.4092 0H12.5791C13.4062 0 14.0508 0.504883 14.2334 1.2998L14.6953 3.30859L15.0605 3.44824L16.8115 2.37402C17.5098 1.94434 18.3154 2.05176 18.8955 2.63184L20.3994 4.13574C21.001 4.7373 21.0869 5.54297 20.6572 6.23047L19.5615 7.9707L19.7012 8.31445L21.6885 8.79785C22.4834 8.99121 22.9883 9.63574 22.9883 10.4521V12.5791C22.9883 13.3955 22.4727 14.0508 21.6885 14.2334L19.6797 14.7061L19.5508 15.0283L20.6465 16.7686C21.0762 17.4561 20.9795 18.2725 20.3887 18.8633L18.8848 20.3564C18.2939 20.9473 17.4883 21.0439 16.79 20.6143L15.0391 19.54L14.6953 19.6582L14.2334 21.667C14.0508 22.4619 13.4062 22.9668 12.5791 22.9668H10.4092ZM10.5811 21.291H12.4072C12.5898 21.291 12.6865 21.2158 12.708 21.0439L13.3633 18.3799C14.0186 18.2188 14.6201 17.9609 15.082 17.6709L17.4238 19.1104C17.5635 19.207 17.7031 19.1963 17.832 19.0566L19.0889 17.7891C19.2178 17.6709 19.2178 17.542 19.1318 17.3916L17.6924 15.0713C17.9502 14.6201 18.2188 14.0078 18.3906 13.3525L21.0654 12.7188C21.2266 12.6865 21.3125 12.5898 21.3125 12.4072V10.6133C21.3125 10.4199 21.2373 10.334 21.0654 10.3018L18.4014 9.65723C18.2295 8.95898 17.918 8.3252 17.7139 7.92773L19.1426 5.60742C19.2393 5.44629 19.2393 5.31738 19.1104 5.18848L17.8428 3.94238C17.7031 3.81348 17.5957 3.80273 17.4238 3.88867L15.0928 5.30664C14.6094 5.04883 14.0293 4.78027 13.3633 4.6084L12.708 1.92285C12.6865 1.75098 12.5898 1.67578 12.4072 1.67578H10.5811C10.3984 1.67578 10.3018 1.75098 10.2695 1.92285L9.63574 4.58691C8.99121 4.76953 8.33594 5.03809 7.87402 5.2959L5.55371 3.88867C5.39258 3.80273 5.27441 3.81348 5.14551 3.94238L3.86719 5.18848C3.74902 5.31738 3.73828 5.44629 3.83496 5.60742L5.26367 7.92773C5.07031 8.3252 4.74805 8.95898 4.57617 9.65723L1.92285 10.3018C1.74023 10.334 1.67578 10.4199 1.67578 10.6133V12.4072C1.67578 12.5898 1.75098 12.6865 1.92285 12.7188L4.58691 13.3525C4.75879 14.0078 5.03809 14.6201 5.28516 15.0713L3.8457 17.3916C3.75977 17.542 3.77051 17.6709 3.88867 17.7891L5.15625 19.0566C5.27441 19.1963 5.4248 19.207 5.55371 19.1104L7.89551 17.6709C8.35742 17.9609 8.96973 18.2188 9.625 18.3799L10.2695 21.0439C10.3018 21.2158 10.3984 21.291 10.5811 21.291ZM11.4941 15.5762C9.22754 15.5762 7.40137 13.75 7.40137 11.4834C7.40137 9.2168 9.22754 7.39062 11.4941 7.39062C13.7607 7.39062 15.5869 9.2168 15.5869 11.4834C15.5869 13.75 13.7607 15.5762 11.4941 15.5762ZM11.4941 13.9111C12.8369 13.9111 13.9219 12.8262 13.9219 11.4834C13.9219 10.1406 12.8369 9.05566 11.4941 9.05566C10.1514 9.05566 9.06641 10.1406 9.06641 11.4834C9.06641 12.8262 10.1514 13.9111 11.4941 13.9111Z" fill="#717171"/>
</svg>
